<?xml version="1.0" encoding="UTF-8" standalone="no"?>
<!-- Created with Inkscape (http://www.inkscape.org/) -->

<svg
   width="1024"
   height="1024"
   viewBox="0 0 270.93334 270.93334"
   version="1.1"
   id="svg1"
   xml:space="preserve"
   inkscape:version="1.4.2 (ebf0e940, 2025-05-08)"
   sodipodi:docname="icon-link.svg"
   inkscape:export-filename="Shared (Extension)/Icon-dark-1024.png"
   inkscape:export-xdpi="192.00002"
   inkscape:export-ydpi="192.00002"
   xmlns:inkscape="http://www.inkscape.org/namespaces/inkscape"
   xmlns:sodipodi="http://sodipodi.sourceforge.net/DTD/sodipodi-0.dtd"
   xmlns="http://www.w3.org/2000/svg"
   xmlns:svg="http://www.w3.org/2000/svg"><sodipodi:namedview
     id="namedview1"
     pagecolor="#ffffff"
     bordercolor="#000000"
     borderopacity="0.25"
     inkscape:showpageshadow="false"
     inkscape:pageopacity="0.0"
     inkscape:pagecheckerboard="0"
     inkscape:deskcolor="#d1d1d1"
     inkscape:document-units="px"
     showborder="true"
     borderlayer="false"
     inkscape:zoom="0.48264661"
     inkscape:cx="-357.40436"
     inkscape:cy="436.13691"
     inkscape:window-width="3440"
     inkscape:window-height="1384"
     inkscape:window-x="0"
     inkscape:window-y="0"
     inkscape:window-maximized="0"
     inkscape:current-layer="svg1"
     showguides="true" /><defs
     id="defs1"><linearGradient
       id="swatch162"
       inkscape:swatch="solid"><stop
         style="stop-color:#000000;stop-opacity:1;"
         offset="0"
         id="stop162" /></linearGradient><filter
       style="color-interpolation-filters:sRGB"
       inkscape:label="Drop Shadow"
       id="filter158"
       x="-0.018897638"
       y="-0.018897638"
       width="1.0377953"
       height="1.0456693"><feFlood
         result="flood"
         in="SourceGraphic"
         flood-opacity="0.501961"
         flood-color="rgb(0,0,0)"
         id="feFlood157" /><feGaussianBlur
         result="blur"
         in="SourceGraphic"
         stdDeviation="1.000000"
         id="feGaussianBlur157" /><feOffset
         result="offset"
         in="blur"
         dx="0.000000"
         dy="1.000000"
         id="feOffset157" /><feComposite
         result="comp1"
         operator="in"
         in="flood"
         in2="offset"
         id="feComposite157" /><feComposite
         result="comp2"
         operator="over"
         in="SourceGraphic"
         id="feComposite158" /></filter></defs><path
     d="m 136.22138,110.794 q 5.74896,1.01806 9.58165,2.99424 3.8326,1.91634 6.64725,4.79082 7.30596,7.24611 9.70139,15.98934 2.39534,8.68334 -0.0579,17.36668 -2.39534,8.68336 -9.58155,15.86957 l -20.4807,20.5406 q -7.12634,7.12634 -15.80969,9.52173 -8.68335,2.4553 -17.42657,0.0599 -8.683352,-2.3954 -15.989404,-9.70138 -7.246089,-7.24612 -9.641524,-15.92946 -2.395332,-8.74322 0,-17.42657 2.455313,-8.68336 9.581646,-15.86956 l 17.606242,-17.54635 q -0.478995,2.93437 -0.17962,6.16816 0.35924,3.17393 1.61687,5.98852 l -11.737469,11.73749 q -5.209988,5.21 -6.946623,11.49795 -1.736729,6.28794 0,12.63576 1.736635,6.28794 6.946623,11.55783 5.210083,5.21001 11.497989,6.88679 6.34779,1.73667 12.6358,0 6.28791,-1.73667 11.4979,-6.94668 l 19.58241,-19.52254 q 5.21009,-5.21001 6.88684,-11.49796 1.73662,-6.28794 0,-12.57587 -1.73663,-6.34782 -6.94671,-11.61772 -2.9343,-2.93438 -7.0065,-4.67104 -4.01231,-1.73667 -9.94099,-2.21575 z m -1.49713,49.34534 q -5.74895,-1.01805 -9.58165,-2.93436 -3.83261,-1.97621 -6.64725,-4.8507 -7.30596,-7.2461 -9.70139,-15.92944 -2.39544,-8.74323 0,-17.42659 2.45531,-8.68333 9.64152,-15.86955 l 20.42084,-20.480722 q 7.18621,-7.186221 15.86956,-9.581628 8.68333,-2.455291 17.36669,-0.05987 8.74322,2.395407 16.04918,9.701394 7.24617,7.246103 9.64151,15.989333 2.39543,8.683353 -0.0579,17.366703 -2.39544,8.68334 -9.52168,15.86954 L 170.5974,149.4798 q 0.47899,-2.93438 0.11975,-6.10828 -0.29937,-3.17392 -1.55702,-6.0484 l 11.73749,-11.73748 q 5.20999,-5.21001 6.94672,-11.49794 1.73663,-6.28795 0,-12.57589 -1.73673,-6.347826 -6.94672,-11.557833 -5.26985,-5.269891 -11.55777,-6.946676 -6.288,-1.736669 -12.5759,0 -6.28793,1.736668 -11.55789,6.946676 l -19.52253,19.522553 q -5.20998,5.21001 -6.94662,11.49795 -1.73672,6.28794 0,12.63576 1.73664,6.28793 7.0065,11.55782 2.93439,2.9344 6.94671,4.67106 4.0722,1.73667 10.00076,2.21574 z"
     id="text2"
     style="font-size:12.7px;font-family:'SF Pro';-inkscape-font-specification:'SF Pro';text-align:center;text-anchor:middle;fill:#ffffff;stroke-width:4.37177;stroke-linecap:round"
     aria-label="􀉣" /></svg>
