<?xml version="1.0" encoding="UTF-8" standalone="no"?>
<!-- Created with Inkscape (http://www.inkscape.org/) -->

<svg
   width="512"
   height="512"
   viewBox="0 0 135.46667 135.46667"
   version="1.1"
   id="svg1"
   xml:space="preserve"
   inkscape:version="1.3.2 (091e20e, 2023-11-25)"
   sodipodi:docname="icon.svg"
   inkscape:export-filename="../../../../Icons/v2/resources/icon-48.png"
   inkscape:export-xdpi="9"
   inkscape:export-ydpi="9"
   xmlns:inkscape="http://www.inkscape.org/namespaces/inkscape"
   xmlns:sodipodi="http://sodipodi.sourceforge.net/DTD/sodipodi-0.dtd"
   xmlns="http://www.w3.org/2000/svg"
   xmlns:svg="http://www.w3.org/2000/svg"><sodipodi:namedview
     id="namedview1"
     pagecolor="#ffffff"
     bordercolor="#000000"
     borderopacity="0.25"
     inkscape:showpageshadow="false"
     inkscape:pageopacity="0.0"
     inkscape:pagecheckerboard="0"
     inkscape:deskcolor="#d1d1d1"
     inkscape:document-units="px"
     showborder="true"
     borderlayer="false"
     inkscape:zoom="2.1371573"
     inkscape:cx="-2.8074676"
     inkscape:cy="274.89787"
     inkscape:window-width="3440"
     inkscape:window-height="1384"
     inkscape:window-x="0"
     inkscape:window-y="0"
     inkscape:window-maximized="0"
     inkscape:current-layer="layer3"
     showguides="true" /><defs
     id="defs1"><linearGradient
       id="swatch162"
       inkscape:swatch="solid"><stop
         style="stop-color:#000000;stop-opacity:1;"
         offset="0"
         id="stop162" /></linearGradient><filter
       style="color-interpolation-filters:sRGB"
       inkscape:label="Drop Shadow"
       id="filter158"
       x="-0.029314291"
       y="-0.029314291"
       width="1.0586286"
       height="1.0665026"><feFlood
         result="flood"
         in="SourceGraphic"
         flood-opacity="0.501961"
         flood-color="rgb(0,0,0)"
         id="feFlood157" /><feGaussianBlur
         result="blur"
         in="SourceGraphic"
         stdDeviation="1.000000"
         id="feGaussianBlur157" /><feOffset
         result="offset"
         in="blur"
         dx="0.000000"
         dy="1.000000"
         id="feOffset157" /><feComposite
         result="comp1"
         operator="in"
         in="flood"
         in2="offset"
         id="feComposite157" /><feComposite
         result="comp2"
         operator="over"
         in="SourceGraphic"
         in2="comp1"
         id="feComposite158" /></filter></defs><g
     inkscape:groupmode="layer"
     id="layer3"
     inkscape:label="Icon - Logo 2"><rect
       style="display:inline;fill:#007aff;fill-opacity:0.25;stroke-width:1.0183"
       id="rect161-9"
       width="111.125"
       height="108.37335"
       x="12.170835"
       y="13.342742"
       inkscape:label="Selected Bar" /><circle
       style="display:inline;fill:#007aff;fill-opacity:1;stroke-width:0.485123"
       id="path161"
       cx="12.54321"
       cy="12.61022"
       r="12.543209" /><path
       style="display:inline;fill:#007aff;fill-opacity:1;stroke:#007aff;stroke-width:6.77334;stroke-linecap:round;stroke-dasharray:none;stroke-opacity:1"
       d="M 12.54321,14.127281 V 118.32942"
       id="path162" /><circle
       style="display:inline;fill:#007aff;fill-opacity:1;stroke-width:0.485123"
       id="path161-2"
       cx="122.92346"
       cy="-122.85645"
       r="12.543209"
       transform="scale(1,-1)" /><path
       style="display:inline;fill:#007aff;fill-opacity:1;stroke:#007aff;stroke-width:6.77334;stroke-linecap:round;stroke-dasharray:none;stroke-opacity:1"
       d="M 122.92347,120.94048 V 16.729412"
       id="path162-0" /><g
       id="path3-9"
       style="fill:#ffffff;stroke-width:1.10197;stroke-dasharray:none"
       transform="matrix(0.93741759,-0.93741759,0.93741759,0.93741759,-59.255624,67.733335)"><path
         style="color:#000000;fill:#ffffff;fill-opacity:0.25;stroke-width:1.10197;stroke-linecap:round;stroke-dasharray:none"
         d="M 53.824881,67.733334 H 81.642308"
         id="path6-0" /><path
         style="color:#000000;fill:#ffffff;stroke-width:1.10197;stroke-linecap:round;stroke-dasharray:none"
         d="m 53.824219,64.746712 c -1.405353,4.07e-4 -2.544515,1.580357 -2.544922,2.98571 -6.71e-4,1.406115 1.138806,2.987256 2.544922,2.987663 h 27.818359 c 1.406116,-4.07e-4 2.545593,-1.581548 2.544922,-2.987663 -4.07e-4,-1.405353 -1.139569,-2.985303 -2.544922,-2.98571 z"
         id="path7-5"
         sodipodi:nodetypes="ccccccc" /></g><g
       id="g2"
       transform="matrix(0.78085556,-0.78085556,0.78085556,0.78085556,-38.175183,67.861949)"><path
         id="rect2-2"
         style="color:#000000;fill:#ffffff;stroke-width:0.749719;stroke-linecap:round;-inkscape-stroke:none"
         d="m 77.916586,45.236874 c -1.64299,4.27e-4 -2.97467,2.390788 -2.97467,4.033779 10e-7,1.643292 1.332152,4.033777 2.975444,4.033777 h 12.535131 c 5.322019,0 11.546609,5.959218 11.546609,13.132185 v 2.593441 c 0,7.729421 -6.009385,13.132185 -11.546609,13.132185 H 77.916586 c -1.64299,4.27e-4 -2.97467,2.390788 -2.97467,4.033778 0,1.643292 1.332152,4.033778 2.975444,4.033778 h 12.535131 c 10.227689,0 19.614179,-10.97204 19.614179,-21.199741 v -2.593441 c 0,-10.227702 -9.38649,-21.199741 -19.614179,-21.199741 z"
         sodipodi:nodetypes="csssssscssssssc" /><path
         id="path1"
         style="color:#000000;fill:#ffffff;stroke-width:0.749719;stroke-linecap:round;-inkscape-stroke:none"
         d="m 57.879507,45.236874 c 1.64299,4.27e-4 2.97467,2.390788 2.97467,4.033779 0,1.643292 -1.33215,4.033777 -2.97544,4.033777 H 45.343605 c -5.322019,0 -11.546617,5.959218 -11.546617,13.132185 v 2.593441 c 0,7.729421 6.009393,13.132185 11.546617,13.132185 h 12.535902 c 1.64299,4.27e-4 2.97467,2.390788 2.97467,4.033778 0,1.643292 -1.33215,4.033778 -2.97544,4.033778 H 45.343605 c -10.2277,0 -19.614187,-10.97204 -19.614187,-21.199741 v -2.593441 c 0,-10.227702 9.386487,-21.199741 19.614187,-21.199741 z"
         sodipodi:nodetypes="csssssscssssssc" /></g></g></svg>
