<?xml version="1.0" encoding="UTF-8" standalone="no"?>
<!-- Created with Inkscape (http://www.inkscape.org/) -->

<svg
   width="48"
   height="48"
   viewBox="0 0 12.7 12.7"
   version="1.1"
   id="svg1"
   xml:space="preserve"
   sodipodi:docname="icon-minus.svg"
   inkscape:version="1.3.2 (091e20e, 2023-11-25)"
   xmlns:inkscape="http://www.inkscape.org/namespaces/inkscape"
   xmlns:sodipodi="http://sodipodi.sourceforge.net/DTD/sodipodi-0.dtd"
   xmlns="http://www.w3.org/2000/svg"
   xmlns:svg="http://www.w3.org/2000/svg"><sodipodi:namedview
     id="namedview1"
     pagecolor="#ffffff"
     bordercolor="#000000"
     borderopacity="0.25"
     inkscape:showpageshadow="2"
     inkscape:pageopacity="0.0"
     inkscape:pagecheckerboard="0"
     inkscape:deskcolor="#d1d1d1"
     inkscape:zoom="6.0625"
     inkscape:cx="24"
     inkscape:cy="24"
     inkscape:window-width="1392"
     inkscape:window-height="1184"
     inkscape:window-x="0"
     inkscape:window-y="0"
     inkscape:window-maximized="0"
     inkscape:current-layer="svg1" /><defs
     id="defs1" /><path
     d="M 5.6860056,0.42365654 C 4.9587025,0.5084342 4.3117151,0.70476141 3.6424178,1.0394101 3.0400503,1.3428248 2.6117,1.6551636 2.11642,2.1549056 1.2775674,2.9982202 0.72874358,4.0155521 0.47887259,5.1935153 c -0.10708757,0.5220519 -0.11154955,1.7803308 0,2.3336166 0.46850811,2.3291546 2.30684471,4.1808771 4.67169511,4.6984671 0.5354379,0.116011 1.8651085,0.116011 2.4094703,0 2.0882076,-0.45066 3.783761,-1.967734 4.461982,-3.989012 0.200789,-0.5979056 0.281105,-1.1467294 0.281105,-1.8829564 0,-0.7228411 -0.07139,-1.1824252 -0.290029,-1.8740324 C 11.424114,2.6234137 9.7821051,1.0751059 7.8679148,0.57982591 7.1495357,0.39688465 6.4043847,0.34334087 5.6860056,0.42365654 Z M 8.8584748,3.9129265 C 9.0726499,4.0557099 9.1172697,4.2431131 8.9923342,4.4840602 8.804931,4.8365567 6.1545137,8.9638901 6.0474261,9.0620537 5.8957187,9.2092991 5.6815436,9.236071 5.4762924,9.1379074 5.2531933,9.0263578 3.6468798,7.0675477 3.606722,6.8578346 3.5531782,6.5856537 3.8075112,6.264391 4.0752301,6.264391 c 0.2007892,0 0.3524966,0.1427834 0.9593261,0.9236303 C 5.4986023,7.7770029 5.6904676,7.986716 5.7217014,7.9465582 5.7440113,7.9197863 6.3017591,7.0273899 6.9532085,5.9743622 7.6091198,4.9168724 8.2070254,4.0021661 8.2784171,3.9307744 8.4435105,3.779067 8.6487616,3.770143 8.8584748,3.9129265 Z"
     id="path3-9"
     style="fill:#007aff;fill-opacity:1;stroke:none;stroke-width:0.00446198" /></svg>
