<?xml version="1.0" encoding="UTF-8" standalone="no"?>
<!-- Created with Inkscape (http://www.inkscape.org/) -->

<svg
   width="48"
   height="48"
   viewBox="0 0 12.7 12.7"
   version="1.1"
   id="svg1"
   xml:space="preserve"
   inkscape:version="1.4.2 (ebf0e940, 2025-05-08)"
   sodipodi:docname="icon.svg"
   inkscape:export-filename="../../../../Icons/v2/resources/icon-48.png"
   inkscape:export-xdpi="9"
   inkscape:export-ydpi="9"
   xmlns:inkscape="http://www.inkscape.org/namespaces/inkscape"
   xmlns:sodipodi="http://sodipodi.sourceforge.net/DTD/sodipodi-0.dtd"
   xmlns="http://www.w3.org/2000/svg"
   xmlns:svg="http://www.w3.org/2000/svg"><sodipodi:namedview
     id="namedview1"
     pagecolor="#ffffff"
     bordercolor="#000000"
     borderopacity="0.25"
     inkscape:showpageshadow="false"
     inkscape:pageopacity="0.0"
     inkscape:pagecheckerboard="0"
     inkscape:deskcolor="#d1d1d1"
     inkscape:document-units="px"
     showborder="true"
     borderlayer="false"
     inkscape:zoom="18.319929"
     inkscape:cx="16.048097"
     inkscape:cy="26.119096"
     inkscape:window-width="3440"
     inkscape:window-height="1384"
     inkscape:window-x="0"
     inkscape:window-y="0"
     inkscape:window-maximized="0"
     inkscape:current-layer="svg1"
     showguides="true" /><defs
     id="defs1"><linearGradient
       id="swatch162"
       inkscape:swatch="solid"><stop
         style="stop-color:#000000;stop-opacity:1;"
         offset="0"
         id="stop162" /></linearGradient><filter
       style="color-interpolation-filters:sRGB"
       inkscape:label="Drop Shadow"
       id="filter158"
       x="-0.029314291"
       y="-0.029314291"
       width="1.0586286"
       height="1.0665026"><feFlood
         result="flood"
         in="SourceGraphic"
         flood-opacity="0.501961"
         flood-color="rgb(0,0,0)"
         id="feFlood157" /><feGaussianBlur
         result="blur"
         in="SourceGraphic"
         stdDeviation="1.000000"
         id="feGaussianBlur157" /><feOffset
         result="offset"
         in="blur"
         dx="0.000000"
         dy="1.000000"
         id="feOffset157" /><feComposite
         result="comp1"
         operator="in"
         in="flood"
         in2="offset"
         id="feComposite157" /><feComposite
         result="comp2"
         operator="over"
         in="SourceGraphic"
         in2="comp1"
         id="feComposite158" /></filter></defs><rect
     style="display:inline;fill:#007aff;fill-opacity:0.25;stroke-width:0.0954656"
     id="rect161-9"
     width="10.417969"
     height="10.160002"
     x="1.1410158"
     y="1.250882"
     inkscape:label="Selected Bar" /><circle
     style="display:inline;fill:#007aff;fill-opacity:1;stroke-width:0.0454803"
     id="path161"
     cx="1.175926"
     cy="1.1822081"
     r="1.1759259" /><path
     style="display:inline;fill:#007aff;fill-opacity:1;stroke:#007aff;stroke-width:0.635001;stroke-linecap:round;stroke-dasharray:none;stroke-opacity:1"
     d="M 1.1759259,1.3244326 V 11.093383"
     id="path162" /><circle
     style="display:inline;fill:#007aff;fill-opacity:1;stroke-width:0.0454803"
     id="path161-2"
     cx="11.524075"
     cy="-11.517793"
     r="1.1759259"
     transform="scale(1,-1)" /><path
     style="display:inline;fill:#007aff;fill-opacity:1;stroke:#007aff;stroke-width:0.635001;stroke-linecap:round;stroke-dasharray:none;stroke-opacity:1"
     d="M 11.524075,11.33817 V 1.5683824"
     id="path162-0" /><path
     d="m 6.3952852,4.8696402 q 0.344938,0.061084 0.574899,0.1796544 0.229956,0.1149804 0.398835,0.2874492 0.438358,0.4347666 0.582084,0.9593604 0.14372,0.5210004 -0.0035,1.0420008 -0.143721,0.5210016 -0.574893,0.9521742 l -1.228842,1.232436 q -0.427581,0.4275804 -0.948582,0.5713038 -0.521001,0.147318 -1.045594,0.0036 -0.520975,-0.14372 -0.959338,-0.5820788 -0.434765,-0.4347672 -0.578491,-0.9557676 -0.14372,-0.5245932 0,-1.0455942 0.147319,-0.5210016 0.574898,-0.9521736 l 1.056375,-1.052781 q -0.02874,0.1760622 -0.01078,0.3700896 0.02155,0.1904358 0.09701,0.3593112 L 3.6251232,6.942864 q -0.3126,0.3126 -0.416797,0.689877 -0.104204,0.3772764 0,0.7581456 0.104197,0.3772764 0.416797,0.6934698 0.312605,0.3126006 0.689879,0.4132074 0.380867,0.1042002 0.758148,0 0.377275,-0.1042002 0.689874,-0.4168008 l 1.174945,-1.1713524 q 0.312605,-0.3126006 0.41321,-0.6898776 0.104197,-0.3772764 0,-0.7545522 Q 7.2469812,6.0841116 6.9343762,5.7679176 6.7583182,5.5918548 6.5139862,5.4876552 6.2732482,5.383455 5.9175272,5.3547102 Z m -0.08983,2.9607204 Q 5.9605212,7.7692776 5.7305592,7.654299 5.5006022,7.5357264 5.3317242,7.363257 4.8933662,6.928491 4.7496402,6.4074906 q -0.143726,-0.5245938 0,-1.0455954 0.147319,-0.5209998 0.578491,-0.952173 l 1.225251,-1.2288434 q 0.431172,-0.4311732 0.952173,-0.5748977 0.521,-0.1473174 1.042002,-0.00359 0.524593,0.1437245 0.962951,0.5820837 0.43477,0.4347662 0.5784898,0.95936 0.143726,0.5210012 -0.0035,1.0420022 -0.1437258,0.5210004 -0.5713008,0.9521724 l -1.056376,1.052781 q 0.02874,-0.1760628 0.0072,-0.3664968 -0.01796,-0.1904352 -0.09342,-0.362904 l 0.70425,-0.7042488 q 0.312599,-0.3126006 0.416803,-0.6898764 0.104198,-0.377277 0,-0.7545534 -0.104204,-0.3808696 -0.416803,-0.69347 -0.316191,-0.3161935 -0.693466,-0.4168006 -0.37728,-0.1042001 -0.754554,0 -0.377276,0.1042001 -0.693474,0.4168006 l -1.171343,1.171351 q -0.312598,0.3126006 -0.416797,0.689877 -0.104203,0.3772764 0,0.7581456 0.104199,0.3772758 0.42039,0.6934692 0.176064,0.176064 0.416803,0.2802636 0.244332,0.1042002 0.600045,0.1329444 z"
     id="text2"
     style="font-size:12.7px;font-family:'SF Pro';-inkscape-font-specification:'SF Pro';text-align:center;text-anchor:middle;fill:#ffffff;stroke-width:0.262306;stroke-linecap:round"
     aria-label="􀉣" /></svg>
